<?xml version="1.0" encoding="utf-8"?>
<!-- Generator: Adobe Illustrator 23.0.6, SVG Export Plug-In . SVG Version: 6.00 Build 0)  -->
<svg version="1.1" id="Layer_2" xmlns="http://www.w3.org/2000/svg" xmlns:xlink="http://www.w3.org/1999/xlink" x="0px" y="0px"
	 viewBox="0 0 256 256" style="enable-background:new 0 0 256 256;" xml:space="preserve">
<style type="text/css">
	.st0{fill:#666666;}
</style>
<path class="st0" d="M252.7,112.9L132.1,2c-2.5-2.3-6.3-2.3-8.7,0L2.8,112.9c-4.3,4-1.5,11.2,4.4,11.2H30v100.8
	c0,7.1,5.8,12.9,12.9,12.9h170.2c7.1,0,12.9-5.8,12.9-12.9V124.1h22.3C254.2,124.1,257,116.9,252.7,112.9z M166,172.4
	c0,7.1-5.8,12.9-12.9,12.9h-48.9c-7.1,0-12.9-5.8-12.9-12.9V137c0-7.1,5.8-12.9,12.9-12.9h48.9c7.1,0,12.9,5.8,12.9,12.9V172.4z"/>
</svg>
